# xmcd
#
# Track frame offsets:
#	182
#	12937
#	22940
#	31605
#	43587
#	57525
#	67115
#	78730
#	90047
#	100232
#	109632
#	122675
#	132805
#	142247
#	153807
#	165292
#	177942
#	187812
#	198677
#	214312
#
# Disc length: 2987 seconds
#
# Revision: 0
# Processed by: cddbd v1.5PL3 Copyright (c) Steve Scherf et al.
# Submitted via: audiograbber 1.83.01
#
DISCID=050ba914
DTITLE=Various Artist - The Country Collection 1
DYEAR=1900
DGENRE=Country
TTITLE0=Johnny Cash - Folsom Prison Blues
TTITLE1=Johnny Cash - Hey Porter
TTITLE2=Conway Twitty - Blue Is The Way I Feel
TTITLE3=Conway Twitty - You Made Me What I Am
TTITLE4=Willie Nelson - Home Is where Your Happy
TTITLE5=Willie Nelson - I'm Building Heartaches
TTITLE6=Patsy Cline - I've Loved And Lost Again
TTITLE7=Patsy Cline - Just Out Of Reach
TTITLE8=Faron Young - Hello Walls
TTITLE9=Faron Young - I Can't Help It
TTITLE10=Don Williams - Where Do We Go From Here
TTITLE11=Don Williams - Take My Hand For A While
TTITLE12=George Jones - Worlds Worst Loser
TTITLE13=George Jones - I Can't Change Overnight
TTITLE14=Johnny Pacheck - I Don't Need To Know That Right Now
TTITLE15=Johnny Pacheck - Georgia In a jug
TTITLE16=Dolly Parton - Release Me
TTITLE17=Dolly Parton - It Wasn't God Who Made Honky Tonk Angels
TTITLE18=Ray Pillow - How Do I Hide From A Memory
TTITLE19=Ray Pillow - We're Together Again
EXTD=
EXTT0=
EXTT1=
EXTT2=
EXTT3=
EXTT4=
EXTT5=
EXTT6=
EXTT7=
EXTT8=
EXTT9=
EXTT10=
EXTT11=
EXTT12=
EXTT13=
EXTT14=
EXTT15=
EXTT16=
EXTT17=
EXTT18=
EXTT19=
PLAYORDER=
